<svg height="512" viewBox="0 0 64 64" width="512" xmlns="http://www.w3.org/2000/svg"><g fill="#78b9eb"><path d="m61.31 22.49-2.82 2.82-7.57-6.39-1.63-1.38-.54-1.65v-.01l-.16-.47-2.13-.7-1.38-1.63-6.39-7.57 2.82-2.82 7.57 6.39 1.63 1.38.7 2.13 2.13.7 1.38 1.63z"/><path d="m61.31 41.51-6.39 7.57-1.38 1.63-2.13.7-.7 2.13-1.63 1.38-7.57 6.39-2.82-2.82 6.39-7.57 1.38-1.63 2.13-.7.7-2.13 1.63-1.38 7.57-6.39z"/><path d="m40 20v24l-1 4h-2l-1-4h-8l-1 4h-2l-1-4v-24a4 4 0 0 1 4-4h8a4 4 0 0 1 4 4z"/><path d="m25.31 5.51-6.39 7.57-1.38 1.63-2.13.7-.7 2.13-1.63 1.38-7.57 6.39-2.82-2.82 6.39-7.57 1.38-1.63 2.13-.7.7-2.13 1.63-1.38 7.57-6.39z"/><path d="m25.31 58.49-2.82 2.82-7.57-6.39-1.63-1.38-.7-2.13-2.13-.7-1.38-1.63-6.39-7.57 2.82-2.82 7.57 6.39 1.63 1.38.7 2.13 2.13.7 1.38 1.63z"/></g><path d="m27.707 20.293-1.414 1.414.707.707v14.172l-.707.707 1.414 1.414 1-1a1 1 0 0 0 .293-.707v-15a1 1 0 0 0 -.293-.707z" fill="#006df0"/><path d="m37.707 21.707-1.414-1.414-1 1a1 1 0 0 0 -.293.707v15a1 1 0 0 0 .293.707l1 1 1.414-1.414-.707-.707v-14.172z" fill="#006df0"/><path d="m62.021 40.808-2.829-2.829a1 1 0 0 0 -1.352-.056l-7.226 6.114a6.021 6.021 0 0 0 -3.233.567l-6.381-8.925v-6.379l6.557-9.83a5.928 5.928 0 0 0 2.443.53c.2 0 .4-.035.6-.054l7.252 6.124a1 1 0 0 0 1.352-.057l2.82-2.82a1 1 0 0 0 .057-1.352l-6.11-7.236a5.975 5.975 0 0 0 -6.573-6.572l-7.243-6.107a1 1 0 0 0 -1.352.057l-2.82 2.817a1 1 0 0 0 -.057 1.352l6.124 7.251a5.975 5.975 0 0 0 .364 2.776l-3.7 2.222a4.991 4.991 0 0 0 -4.714-3.401h-8a4.991 4.991 0 0 0 -4.715 3.4l-3.7-2.223a5.974 5.974 0 0 0 .365-2.777l6.127-7.241a1 1 0 0 0 -.056-1.353l-2.829-2.827a1 1 0 0 0 -1.352-.056l-7.226 6.114a5.975 5.975 0 0 0 -6.577 6.577l-6.114 7.225a1 1 0 0 0 .056 1.353l2.829 2.829a1 1 0 0 0 1.352.056l7.24-6.128c.2.02.4.055.6.055a5.917 5.917 0 0 0 2.439-.528l6.561 9.824v6.376l-6.383 8.928a6.019 6.019 0 0 0 -3.235-.573l-7.222-6.108a1 1 0 0 0 -1.352.056l-2.829 2.829a1 1 0 0 0 -.056 1.353l6.114 7.225a5.986 5.986 0 0 0 5.963 6.614c.2 0 .4-.035.6-.055l7.242 6.128a1 1 0 0 0 1.352-.056l2.829-2.829a1 1 0 0 0 .056-1.353l-6.129-7.235a5.966 5.966 0 0 0 -.364-2.78l3.772-2.266.672 2.691a1 1 0 0 0 .97.755h14a1 1 0 0 0 .97-.757l.672-2.691 3.774 2.268a6.013 6.013 0 0 0 -.379 2.794l-6.114 7.225a1 1 0 0 0 .056 1.353l2.829 2.829a1 1 0 0 0 1.352.056l7.24-6.128c.2.02.4.055.6.055a5.986 5.986 0 0 0 5.965-6.618l6.114-7.225a1 1 0 0 0 -.058-1.353zm-45.81-23.477a4.024 4.024 0 0 1 -.466.251l.455-1.382 1.376-.459c-.053.109-.1.222-.159.327a3.729 3.729 0 0 1 -1.211 1.258zm-3.949-6.931-.462 1.4-1.4.466a3.895 3.895 0 0 1 1.862-1.866zm-6.691 13.556-1.527-1.527 7-8.276 1.855-.618a1 1 0 0 0 .632-.633l.619-1.856 8.276-7 1.527 1.527-7 8.276-1.855.618a1 1 0 0 0 -.632.633l-.619 1.856zm12.54-5.587c.045-.042.092-.078.136-.122.114-.114.209-.233.31-.35l4.443 2.669v5.134zm4.889 25.065-4.443 2.666c-.1-.115-.193-.232-.3-.344l4.743-6.638zm-6.167 3.733a3.638 3.638 0 0 1 .6.78c.059.1.1.2.149.308l-1.382-.455-.461-1.38a4.006 4.006 0 0 1 .61.353 3.042 3.042 0 0 1 .484.394zm-6.433 4.572 1.4.466.467 1.4a3.895 3.895 0 0 1 -1.867-1.866zm12.031 8.217-8.276-7-.621-1.856a1 1 0 0 0 -.632-.633l-1.855-.618-7-8.276 1.527-1.527 8.276 7 .619 1.856a1 1 0 0 0 .632.633l1.855.618 7 8.276zm24.736-12.789a3.964 3.964 0 0 1 1.095-.77l-.462 1.403-1.4.466a3.97 3.97 0 0 1 .767-1.099zm-6.167-26.601 4.443-2.666c.1.117.2.237.311.351.044.044.09.08.135.121l-4.889 7.328zm6.167-3.733a3.638 3.638 0 0 1 -.6-.78c-.058-.1-.1-.2-.147-.3l1.38.447.45 1.375a3.907 3.907 0 0 1 -.487-.265 3.429 3.429 0 0 1 -.596-.477zm6.433-4.576-1.4-.457-.459-1.4a4.006 4.006 0 0 1 1.09.768 3.965 3.965 0 0 1 .769 1.089zm-12.033-8.21 8.282 6.994.611 1.859a1 1 0 0 0 .638.638l1.861.612 6.994 8.281-1.52 1.52-8.281-6.991-.43-1.314a.907.907 0 0 0 -.026-.089l-.16-.47a1 1 0 0 0 -.634-.627l-1.861-.612-6.994-8.281zm-13.286 42.953.5-2h6.438l.5 2zm10.719-3.123-.781 3.123h-.439l-.81-3.243a1 1 0 0 0 -.97-.757h-8a1 1 0 0 0 -.97.757l-.81 3.243h-.439l-.781-3.123v-23.877a3 3 0 0 1 3-3h8a3 3 0 0 1 3 3zm2-.443v-4.316l4.748 6.641c-.109.109-.2.228-.3.344zm10.738 10.166.467-1.4 1.4-.466a3.895 3.895 0 0 1 -1.867 1.866zm1.215-3.756-1.855.618a1 1 0 0 0 -.632.633l-.619 1.856-8.276 7-1.527-1.527 7-8.276 1.855-.618a1 1 0 0 0 .632-.633l.619-1.856 8.276-7 1.527 1.527z" fill="#006df0"/></svg>